<svg fill="none" height="64" width="117" xmlns="http://www.w3.org/2000/svg"><path d="m0 8c0-4.4183 3.582-8 8-8h101c4.418 0 8 3.5817 8 8v39h-117z" fill="#bde6fa"/><path d="m0 47h117v9c0 4.4183-3.582 8-8 8h-101c-4.418 0-8-3.5817-8-8z" fill="#eaf5fa"/><path d="m90.5 22h14v19l-7-4.6061-7 4.6061z" fill="#064c6f"/><circle cx="97" cy="17.5" fill="#229bd8" r="10.5"/><path d="m97 12 1.358 3.6312 3.873.1692-3.034 2.4134 1.036 3.7358-3.233-2.1396-3.233 2.1396 1.036-3.7358-3.034-2.4134 3.873-.1692z" fill="#bde6fa"/><g fill="#fff"><rect height="16" rx="3" width="16" x="7.5" y="8"/><rect height="5" rx="2.5" width="44" x="30.5" y="8.5"/><rect height="5" rx="2.5" width="28" x="30.5" y="18.5"/></g></svg>