<svg fill="none" height="164" viewBox="0 0 692 164" width="692" xmlns="http://www.w3.org/2000/svg"><g fill="#229bd8"><path d="m182.372 89.6497v23.9343h-11.152v-64.521h24.563c6.199-.3297 12.296 1.6857 17.09 5.649 2.087 1.8581 3.738 4.1594 4.831 6.7373s1.602 5.3679 1.49 8.1679c.149 2.7718-.33 5.5414-1.402 8.0998-1.071 2.5584-2.707 4.8389-4.784 6.6693-4.131 3.5165-9.933 5.2634-17.361 5.2634zm0-9.0747h13.411c3.253.2229 6.473-.78 9.03-2.8132 1.084-1.0446 1.926-2.3152 2.469-3.7223.542-1.4072.77-2.9167.669-4.4223.058-1.5111-.19-3.0183-.73-4.4301-.539-1.4117-1.358-2.6986-2.408-3.7825-1.169-1.1059-2.546-1.9664-4.05-2.5312-1.504-.5649-3.105-.8227-4.709-.7584h-13.682z"/><path d="m246.557 114.468c-3.047.122-6.086-.387-8.929-1.495-2.843-1.109-5.429-2.793-7.597-4.948-2.142-2.284-3.806-4.977-4.892-7.919-1.086-2.9429-1.572-6.0747-1.429-9.2098v-1.3385c-.074-4.4285.869-8.8146 2.754-12.818 1.695-3.6271 4.38-6.6955 7.744-8.8479 3.328-2.0906 7.183-3.1772 11.107-3.1308 2.816-.1692 5.633.3042 8.241 1.3847 2.608 1.0804 4.939 2.74 6.818 4.8542 3.544 4.1744 5.305 10.0503 5.305 17.673v4.3559h-31.245c.145 3.5073 1.549 6.8434 3.95 9.3922 1.145 1.137 2.508 2.03 4.006 2.622 1.498.593 3.1.874 4.709.827 2.352.083 4.69-.41 6.81-1.438s3.959-2.559 5.358-4.461l5.78 5.558c-1.916 2.867-4.558 5.169-7.653 6.67-3.389 1.59-7.099 2.366-10.837 2.269zm-1.287-41.086c-1.341-.0452-2.674.2103-3.905.7479-1.23.5376-2.325 1.3439-3.206 2.3602-1.984 2.4725-3.194 5.4804-3.477 8.6437h20.319v-.7941c-.01-2.9698-1.021-5.8488-2.868-8.1672-.882-.926-1.951-1.6535-3.134-2.1345s-2.454-.7046-3.729-.656z"/><path d="m270.194 89.2629c-.311-6.337 1.493-12.5971 5.125-17.7865 1.558-2.1723 3.622-3.9283 6.01-5.1147 2.389-1.1864 5.031-1.7671 7.694-1.6913 2.307-.0833 4.604.3498 6.724 1.2679 2.12.9182 4.011 2.2984 5.535 4.0408v-24.4564h10.724v68.0603h-9.708l-.519-4.968c-1.544 1.908-3.508 3.431-5.737 4.446-2.23 1.016-4.663 1.498-7.109 1.407-2.638.052-5.248-.541-7.608-1.726-2.359-1.186-4.397-2.929-5.938-5.08-3.717-5.383-5.543-11.8568-5.193-18.3991zm10.724.9301c-.216 3.9774.759 7.9286 2.8 11.343.859 1.315 2.043 2.382 3.436 3.098s2.947 1.056 4.51.986c2.002.088 3.985-.423 5.698-1.469 1.712-1.046 3.076-2.58 3.92-4.4068v-20.4182c-.84-1.802-2.194-3.3122-3.891-4.3383-1.696-1.0262-3.658-1.5219-5.636-1.4241-1.581-.0743-3.153.2701-4.56.9987-1.407.7287-2.598 1.816-3.455 3.153-2.133 3.7929-3.114 8.1308-2.822 12.4777z"/><path d="m345.666 108.887c-1.669 1.889-3.743 3.373-6.066 4.34s-4.834 1.391-7.344 1.241c-2.169.159-4.345-.165-6.375-.949-2.029-.785-3.861-2.01-5.365-3.588-2.897-3.76-4.319-8.459-3.996-13.2038v-31.081h10.702v30.9222c0 6.0796 2.528 9.0746 7.54 9.0746s8.737-1.86 10.543-5.626v-34.3708h10.724v47.9368h-10.092z"/><path d="m371.246 113.583h-10.702v-68.0603h10.702z"/><path d="m375.761 53.1909c-.02-.7589.109-1.5143.38-2.2229s.679-1.3564 1.2-1.9061c.597-.5753 1.307-1.0181 2.085-1.2995s1.606-.3952 2.43-.3339c.825-.0557 1.651.0607 2.428.3418.777.2812 1.488.7209 2.088 1.2916.525.5468.936 1.194 1.207 1.9033.272.7093.398 1.4662.373 2.2257.017.7503-.116 1.4964-.391 2.194-.276.6975-.688 1.3324-1.212 1.867-.604.5621-1.316.9948-2.093 1.2717-.776.277-1.6.3923-2.422.339-.823.0587-1.648-.0541-2.425-.3313s-1.489-.7128-2.09-1.2794c-.513-.5405-.915-1.1775-1.182-1.8744-.268-.6969-.395-1.4399-.376-2.1866zm11.288 60.3921h-10.611v-47.937h10.701z"/><path d="m403.872 104.622h29.146v8.961h-40.254v-64.5212h11.153z"/><path d="m437.532 53.1908c-.024-.7575.101-1.5124.368-2.2211.268-.7087.672-1.3571 1.19-1.9079 1.263-1.0716 2.862-1.6595 4.515-1.6595s3.253.5879 4.516 1.6595c.529.5449.944 1.1913 1.219 1.9006.275.7094.406 1.4673.383 2.2284.018.7502-.116 1.4963-.391 2.1939s-.687 1.3325-1.211 1.867c-1.269 1.059-2.866 1.6387-4.516 1.6387-1.649 0-3.246-.5797-4.515-1.6387-.514-.5397-.916-1.1766-1.184-1.8736-.267-.6971-.394-1.4405-.374-2.1873zm11.288 60.3922h-10.723v-47.9372h10.723z"/><path d="m464.263 65.6459.317 5.5356c1.67-2.0908 3.803-3.7602 6.229-4.875 2.427-1.1147 5.079-1.644 7.745-1.5454 9.934 0 14.991 5.7096 15.172 17.1286v31.6933h-10.724v-31.0581c.206-2.4348-.494-4.8599-1.964-6.806-.848-.8135-1.858-1.4364-2.963-1.8276-1.106-.3911-2.281-.5415-3.449-.4411-2.006-.0627-3.987.4613-5.702 1.5084-1.716 1.0471-3.091 2.5723-3.961 4.3902v34.2342h-10.791v-47.9371z"/><path d="m498.15 89.2629c-.318-6.3344 1.478-12.5942 5.103-17.7865 1.562-2.1726 3.63-3.9285 6.022-5.1147 2.393-1.1862 5.037-1.7669 7.704-1.6913 2.307-.0833 4.604.3498 6.724 1.2679 2.12.9182 4.011 2.2984 5.535 4.0408v-24.4564h10.701v68.0603h-9.685l-.542-4.968c-1.537 1.899-3.49 3.416-5.707 4.431-2.216 1.015-4.636 1.502-7.071 1.422-2.637.05-5.247-.544-7.606-1.729s-4.397-2.927-5.94-5.077c-3.492-4.492-5.238-10.6251-5.238-18.3991zm10.701.9301c-.205 3.9763.769 7.9244 2.8 11.343.861 1.318 2.049 2.388 3.446 3.104 1.398.716 2.956 1.054 4.523.98 2.002.088 3.985-.423 5.698-1.469 1.712-1.046 3.076-2.58 3.92-4.4068v-20.4181c-.842-1.8002-2.197-3.3087-3.893-4.3345s-3.657-1.5228-5.634-1.428c-1.583-.0647-3.155.2837-4.563 1.0113-1.409.7276-2.606 1.8096-3.474 3.1404-2.134 3.7929-3.115 8.1308-2.823 12.4777z"/><path d="m573.599 108.887c-1.666 1.888-3.736 3.371-6.055 4.337-2.319.967-4.826 1.392-7.332 1.244-2.172.159-4.352-.165-6.385-.949-2.034-.784-3.87-2.009-5.378-3.588-2.897-3.76-4.319-8.459-3.996-13.2038v-31.081h10.724v30.9222c0 6.0496 2.514 9.0746 7.541 9.0746 5.192 0 8.714-1.86 10.543-5.626v-34.3708h10.701v47.9368h-10.092z"/><path d="m598.592 65.6456.294 5.5356c1.663-2.0756 3.782-3.7355 6.191-4.8495s5.042-1.6517 7.693-1.5708c9.964 0 15.021 5.7095 15.171 17.1285v31.6936h-10.701v-31.0584c.207-2.4348-.493-4.8599-1.964-6.806-.849-.811-1.859-1.4325-2.964-1.8234-1.105-.391-2.28-.5428-3.448-.4453-2.006-.0656-3.988.4572-5.704 1.5047-1.716 1.0474-3.091 2.5742-3.958 4.3939v34.2345h-10.724v-47.9374z"/><path d="m632.456 89.2626c-.33-6.3705 1.518-12.6627 5.238-17.8319 1.613-2.1427 3.713-3.8663 6.125-5.0267 2.411-1.1604 5.064-1.7238 7.737-1.6432 2.431-.1035 4.853.3587 7.077 1.3503 2.224.9917 4.191 2.4861 5.746 4.3668l.497-4.8323h9.662v46.4854c.138 2.756-.313 5.51-1.321 8.077-1.009 2.567-2.552 4.887-4.526 6.805-4.365 3.808-10.032 5.761-15.803 5.445-3.545-.025-7.044-.798-10.273-2.268-2.996-1.193-5.617-3.176-7.585-5.74l5.102-6.33c1.446 1.851 3.295 3.345 5.404 4.367s4.423 1.546 6.765 1.532c3.076.171 6.097-.871 8.421-2.904 1.082-1.124 1.917-2.465 2.45-3.934.533-1.47.752-3.036.643-4.596v-3.29c-1.557 1.717-3.47 3.071-5.603 3.964-2.134.894-4.437 1.307-6.747 1.209-2.645.052-5.264-.527-7.643-1.691-2.378-1.163-4.448-2.878-6.038-5.002-3.537-4.462-5.313-10.6326-5.328-18.5124zm10.679.9301c-.218 3.9957.807 7.9605 2.935 11.3433.898 1.322 2.114 2.393 3.535 3.115s3.001 1.071 4.592 1.014c1.966.091 3.917-.386 5.622-1.375 1.705-.99 3.091-2.449 3.996-4.206v-21.0532c-.899-1.7339-2.275-3.1715-3.964-4.1409-1.69-.9695-3.621-1.43-5.564-1.3266-1.614-.0625-3.218.2927-4.657 1.0316-1.439.7388-2.665 1.8366-3.56 3.1881-2.202 3.7443-3.225 8.0703-2.935 12.4097z"/><path d="m679.054 53.1908c-.024-.7575.101-1.5124.368-2.2211.268-.7087.672-1.3571 1.19-1.9079 1.263-1.0716 2.862-1.6595 4.515-1.6595s3.253.5879 4.516 1.6595c.529.5449.944 1.1913 1.219 1.9006.275.7094.406 1.4673.383 2.2284.018.7502-.116 1.4963-.391 2.1939s-.687 1.3325-1.211 1.867c-1.269 1.059-2.866 1.6387-4.516 1.6387-1.649 0-3.246-.5797-4.515-1.6387-.514-.5397-.916-1.1766-1.184-1.8736-.267-.6971-.394-1.4405-.374-2.1873zm11.288 60.3922h-10.633v-47.9372h10.701z"/><path d="m133.256 81.1964c.017 8.8202-3.125 17.3552-8.857 24.0586l-.3.316-3.804 3.821-.19.142-40.2243 40.256-13.2609 13.277-23.8381-23.854 13.2609-13.293 10.5772 10.593 19.5125-19.544 21.3437-21.3277 3.015-3.0153c2.421-3.086 3.79-6.8661 3.906-10.7864.117-3.9205-1.025-7.7751-3.258-10.9994-1.542-2.2026-3.533-4.0535-5.842-5.4306-4.012-2.3389-8.7599-3.0773-13.2935-2.0676-4.5335 1.0098-8.519 3.6932-11.1598 7.514-.4398-1.9805-1.0201-3.9273-1.7366-5.8253-1.6558-4.4432-3.9998-8.5985-6.9462-12.3137 6.696-5.642 15.1769-8.7244 23.9328-8.6985 1.3103 0 2.589 0 3.852.1894 9.1413.9456 17.6073 5.2477 23.7603 12.0743 6.153 6.8265 9.556 15.6924 9.55 24.8826z"/><path d="m72.9345 71.2501c-1.49-5.3577-4.1639-10.3126-7.8245-14.499s-8.2144-7.4974-13.3255-9.6889c-5.1111-2.1914-10.649-3.2073-16.2051-2.9727-5.5562.2345-10.9887 1.7136-15.8969 4.3281s-9.1667 6.2976-12.46142 10.7776c-3.29468 4.4801-5.54144 9.6427-6.574507 15.107-1.033064 5.4643-.826067 11.0908.605717 16.4644 1.43178 5.3736 4.05182 10.3574 7.66679 14.5834l4.08882 4.073 10.8613 10.877 13.2609 13.261 7.104-7.104 6.2358-6.157 10.8613-10.877 4.0888-4.073c.4262-.49.8525-1.011 1.2472-1.579 4.9812-6.482 7.6738-14.432 7.6565-22.6068-.0182-3.3519-.4854-6.6862-1.3892-9.9141zm-21.4858 21.4859-2.7943 2.81-11.5243 11.477-11.3823-11.3823-3.0311-3.0468c-2.1376-2.7136-3.4663-5.9752-3.8335-9.41-.3672-3.4349.2422-6.9036 1.7579-10.0077 1.5158-3.1041 3.8765-5.7176 6.811-7.5402 2.9345-1.8227 6.3236-2.7805 9.7779-2.7634 3.4544.0171 6.8339 1.0084 9.7502 2.8599 2.9163 1.8516 5.251 4.4883 6.736 7.6072 1.485 3.119 2.06 6.5936 1.6589 10.0246-.4011 3.4311-1.762 6.6794-3.9264 9.3717z"/><g clip-rule="evenodd" fill-rule="evenodd"><path d="m52.4909 18.6645c.0034 3.5473-1.0086 7.0214-2.9164 10.0119-1.9079 2.9905-4.6319 5.3724-7.8502 6.8642-2.2742 1.0753-4.7445 1.6735-7.2587 1.7576-2.5141.0842-5.0189-.3474-7.3599-1.2682-3.1633-1.23-5.9308-3.3002-8.0042-5.9873-2.0733-2.6871-3.3739-5.8892-3.7613-9.261-.3875-3.3718.1528-6.7855 1.5626-9.8728 1.4098-3.08739 3.6356-5.73136 6.4374-7.64684 2.8019-1.91549 6.0734-3.029821 9.4619-3.2228456 3.3886-.1930244 6.7655.5425806 9.7667 2.1274956 3.0013 1.58492 5.5129 3.95902 7.2642 6.86632 1.7513 2.90727 2.6757 6.23747 2.6737 9.63147z"/><path d="m118.037 18.6647c.002 4.1689-1.399 8.2172-3.978 11.4928-.908 1.188-1.97 2.2498-3.158 3.1573-3.323 2.5799-7.422 3.9578-11.6285 3.9092-4.2067-.0486-8.2729-1.521-11.5355-4.177s-5.5292-6.3389-6.4302-10.4483c-.9009-4.1094-.3831-8.4029 1.469-12.1802 1.8521-3.77742 4.9294-6.81591 8.7299-8.62007 3.8005-1.80417027 8.1001-2.26758 12.1973-1.314672 4.098.952912 7.752 3.265922 10.367 6.561882 2.614 3.29596 4.035 7.38046 4.03 11.58746z"/></g></g></svg>