<svg width="576" height="576" version="1.1" viewBox="0 0 576 576" xmlns="http://www.w3.org/2000/svg">
 <path d="m133 94h294c12.7 0 23 10.9 23 24.4v82.9c0 13.5-10.3 24.4-23 24.4h-294c-12.7 0-23-10.9-23-24.4v-82.9c0-13.5 10.3-24.4 23-24.4z" fill="#fff2d9" stroke-width="1.03"/>
 <path d="m172 182h161c1.66 0 3 1.34 3 3v14c0 1.66-1.34 3-3 3h-161c-1.66 0-3-1.34-3-3v-14c0-1.66 1.34-3 3-3z" fill="#d34439"/>
 <path d="m355 182h34c1.66 0 3 1.34 3 3v16c0 1.66-1.34 3-3 3h-34c-1.66 0-3-1.34-3-3v-16c0-1.66 1.34-3 3-3z" fill="#221f20"/>
 <path d="m98 209h365c18.8 0 34 15.2 34 34v202c0 18.8-15.2 34-34 34h-365c-18.8 0-34-15.2-34-34v-202c0-18.8 15.2-34 34-34z" fill="#f8feff"/>
 <path d="m125 319h227c3.88 0 7 3.12 7 7v42c0 3.88-3.12 7-7 7h-227c-3.88 0-7-3.12-7-7v-42c0-3.88 3.12-7 7-7z" fill="#25a2b7"/>
 <path d="m391 321h42c3.88 0 7 3.12 7 7v40c0 3.88-3.12 7-7 7h-42c-3.88 0-7-3.12-7-7v-40c0-3.88 3.12-7 7-7z" fill="#221f20"/>
 <path d="m503 270-13-30-30-13 30-13 13-30 13 30 30 13-30 13z" color="#000000" fill="#d34439" stroke-linecap="round" stroke-linejoin="round" stroke-width="6" style="-inkscape-stroke:none"/>
 <path d="m503 181a3 3 0 0 0-2.75 1.81l-12.5 28.9-28.9 12.5a3 3 0 0 0 0 5.5l28.9 12.5 12.5 28.9a3 3 0 0 0 5.5 0l12.5-28.9 28.9-12.5a3 3 0 0 0 0-5.5l-28.9-12.5-12.5-28.9a3 3 0 0 0-2.75-1.81zm0 10.5 10.2 23.6a3 3 0 0 0 1.56 1.56l23.6 10.2-23.6 10.2a3 3 0 0 0-1.56 1.56l-10.2 23.6-10.2-23.6a3 3 0 0 0-1.56-1.56l-23.6-10.2 23.6-10.2a3 3 0 0 0 1.56-1.56z" color="#000000" fill="#d34439" stroke-linecap="round" stroke-linejoin="round" style="-inkscape-stroke:none"/>
 <path d="m571 172a13 14 0 0 1-13 15 13 14 0 0 1-14-14 13 14 0 0 1 13-15 13 14 0 0 1 14 13" fill="#fff"/>
</svg>
