<svg width="576" height="576" version="1.1" viewBox="0 0 576 576" xmlns="http://www.w3.org/2000/svg">
 <path d="m368 38.1a10 10 0 0 0-11.3 8.49 10 10 0 0 0 8.49 11.3s10.6 1.57 21.4 7.68c10.8 6.11 20.8 15.3 22.1 33.1a10 10 0 0 0 0.0117 0.135c2.92 35.1 0.98 70.6 0.98 70.6a10 10 0 0 0 9.43 10.5 10 10 0 0 0 10.5-9.43s2.05-36.4-1.02-73.3c-1.78-25.2-17.8-41-32.2-49.1-14.4-8.14-28.4-10.1-28.4-10.1z" color="#000000" fill="#d7574d" stroke-linecap="round" stroke-linejoin="round" style="-inkscape-stroke:none"/>
 <path d="m206 38.3s-12.5 3.28-25.5 11.1c-13.1 7.79-28.3 20.9-30.8 41.4a10 10 0 0 0-0.0195 0.166c-4.15 38.4-0.627 80.9-0.627 80.9a10 10 0 0 0 10.8 9.16 10 10 0 0 0 9.16-10.8s-3.26-41.4 0.564-77c1.46-11.6 10.8-20.4 21.2-26.6 10.4-6.21 20.5-8.93 20.5-8.93a10 10 0 0 0 7.09-12.2 10 10 0 0 0-12.2-7.09z" color="#000000" fill="#d7574d" stroke-linecap="round" stroke-linejoin="round" style="-inkscape-stroke:none"/>
 <path d="m402 437a10 10 0 0 0-9.19 10.8s2.64 38.5 0.0606 55.7a10 10 0 0 0-4e-3 0.0195c-3.2 21.6-24.1 35.7-42.5 36.5-6.2e-4 3e-5 -1e-3 -2e-5 -2e-3 0-9.75 0.406-21.5-2.6-31-8.58-9.44-5.98-16.5-14.5-18.8-25.5-3.52-16.7-1.82-39.1-1.82-39.1a10 10 0 0 0-9.1-10.8 10 10 0 0 0-10.8 9.1s-2.3 23.7 2.18 44.9a10 10 0 0 0 8e-3 0.0352c3.64 17 14.6 30 27.7 38.2 13.1 8.27 28.3 12.3 42.5 11.7a10 10 0 0 0 0.0176-2e-3c27.6-1.2 56.7-21.1 61.5-53.5 3.42-22.8 0.102-60.3 0.102-60.3a10 10 0 0 0-10.8-9.19z" color="#000000" fill="#d7574d" stroke-linecap="round" stroke-linejoin="round" style="-inkscape-stroke:none"/>
 <path d="m454 394a53 52 0 0 1-53 52 53 52 0 0 1-52-52 53 52 0 0 1 53-52 53 52 0 0 1 52 52l-53-0.2z" fill="#fff"/>
 <path d="m423 394a21 21 0 0 1-22 21 21 21 0 0 1-21-21 21 21 0 0 1 22-21 21 21 0 0 1 21 21l-21-0.1z" fill="#8da63a"/>
 <path d="m419 163a21 21 0 0 0-21.2 20.8s-0.493 28.3-14.3 56c-13.8 27.8-36.9 53.8-93.8 54.1a21 21 0 0 0-0.0508 0c-55.7 0.442-79.1-25.4-93.4-53.2-14.3-27.8-15.4-56.4-15.4-56.4a21 21 0 0 0-21.6-20.3 21 21 0 0 0-20.3 21.6s0.856 36.9 20.1 74.3c19.2 37.4 60.8 76.6 131 76 71.1-0.397 112-39.8 131-77.4 18.7-37.6 18.7-74.4 18.7-74.4a21 21 0 0 0-20.8-21.2z" color="#000000" fill="#fff" stroke-linecap="round" stroke-linejoin="round" style="-inkscape-stroke:none"/>
 <path d="m289 316a21 21 0 0 0-21 21l-0.199 115a21 21 0 0 0 21 21 21 21 0 0 0 21-21l0.199-115a21 21 0 0 0-21-21z" color="#000000" fill="#fff" stroke-linecap="round" stroke-linejoin="round" style="-inkscape-stroke:none"/>
 <path d="m253 40a23 24 0 0 1-24 24 23 24 0 0 1-23-24 23 24 0 0 1 24-24 23 24 0 0 1 23 24l-23-0.1z" fill="#fff"/>
 <path d="m373 40a23 24 0 0 1-24 24 23 24 0 0 1-23-24 23 24 0 0 1 24-24 23 24 0 0 1 23 24l-23-0.1z" fill="#fff"/>
 <path transform="translate(-12 -19)" d="m123 278-10-25-25-11 25-10 11-25 10 25 25 11-25 10z" fill="#d4554b"/>
 <path d="m71 181a11 11 0 0 1-10 11 11 11 0 0 1-11-10 11 11 0 0 1 10-11 11 11 0 0 1 11 10" fill="#d4554b"/>
</svg>
