<svg width="576" height="576" version="1.1" viewBox="0 0 576 576" xmlns="http://www.w3.org/2000/svg">
 <path d="m287 536s-111-59-148-115c-74-113-34-296-34-296 120-64 232-69 375 1 0 0 22 176-33 278-44 82-160 131-160 131z" fill="#fff"/>
 <path d="m206 244a36.5 36.5 0 0 0-36.6 36.4 36.5 36.5 0 0 0 36.4 36.6l44 0.0996a36.5 36.5 0 0 0 36.6-36.4 36.5 36.5 0 0 0-36.4-36.6z" color="#000000" fill="#07a7a7" stroke-linecap="round" style="-inkscape-stroke:none"/>
 <path d="m286 166c20.5 0 37 16.5 37 37v159c0 20.5-16.5 37-37 37s-37-16.5-37-37v-159c0-20.5 16.5-37 37-37z" color="#000000" fill="#07a7a7" stroke-linecap="round" stroke-width="11" style="-inkscape-stroke:none"/>
 <path d="m286 160c-23.4 0-42.5 19.1-42.5 42.5v159c0 23.4 19.1 42.5 42.5 42.5s42.5-19.1 42.5-42.5v-159c0-23.4-19.1-42.5-42.5-42.5zm0 11c17.5 0 31.5 14 31.5 31.5v159c0 17.5-14 31.5-31.5 31.5s-31.5-14-31.5-31.5v-159c0-17.5 14-31.5 31.5-31.5z" color="#000000" fill="#fff" stroke-linecap="round" style="-inkscape-stroke:none"/>
 <path d="m352 196a33.5 33.5 0 0 0-23.6 10l-77.7 79.2 75.4 72.5a33.5 33.5 0 0 0 47.4-0.947 33.5 33.5 0 0 0-0.947-47.4l-26.6-25.5 30.3-30.8a33.5 33.5 0 0 0-0.434-47.4 33.5 33.5 0 0 0-23.8-9.59z" color="#000000" fill="#c7d659" stroke-linecap="round" style="-inkscape-stroke:none"/>
 <path d="m326 201a3 3 0 0 0-3.37 1.68l-0.695 1.51-75.6 75.6a3 3 0 0 0 0.0273 4.27l77 75a3 3 0 0 0 5.09-2.15l-0.0801-153a3 3 0 0 0-2.36-2.93zm-3.64 11.2 0.0723 138-69.7-67.9z" color="#000000" fill="#fff" stroke-linecap="round" stroke-linejoin="round" style="-inkscape-stroke:none"/>
 <path d="m248 280-0.0117 6 104 0.199 0.0117-6z" color="#000000" fill="#fff" style="-inkscape-stroke:none"/>
 <path d="m97 175-9-23-25-11 23-9 11-25 9 23 25 11-23 9z" color="#000000" fill="#ffc144" stroke-linecap="round" stroke-linejoin="round" stroke-width="11" style="-inkscape-stroke:none"/>
 <path d="m97.1 102a5.5 5.5 0 0 0-5.15 3.28l-10.1 22.9-20.9 8.17a5.5 5.5 0 0 0-0.211 10.2l22.9 10.1 8.17 20.9a5.5 5.5 0 0 0 10.2 0.211l10.1-22.9 20.9-8.17a5.5 5.5 0 0 0 0.211-10.2l-22.9-10.1-8.17-20.9a5.5 5.5 0 0 0-5.01-3.49zm-0.41 19.8 4.18 10.7a5.5 5.5 0 0 0 2.91 3.03l12.9 5.67-10.7 4.18a5.5 5.5 0 0 0-3.03 2.91l-5.67 12.9-4.18-10.7a5.5 5.5 0 0 0-2.91-3.03l-12.9-5.67 10.7-4.18a5.5 5.5 0 0 0 3.03-2.91z" color="#000000" fill="#ffc143" stroke-linecap="round" stroke-linejoin="round" style="-inkscape-stroke:none"/>
 <path d="m74 75a14 13 0 0 1-14 13 14 13 0 0 1-14-13 14 13 0 0 1 14-13 14 13 0 0 1 14 13z" fill="#fff" fill-rule="evenodd"/>
 <path d="m476 480-6-15-17-6 15-6 6-17 6 15 17 6-15 6z" color="#000000" fill="#fff" stroke-linecap="round" stroke-linejoin="round" stroke-width="5" style="-inkscape-stroke:none"/>
 <path d="m474 434a2.5 2.5 0 0 0-2.31 1.67l-5.62 15.9-13.9 5.58a2.5 2.5 0 0 0 0.0957 4.68l15.9 5.62 5.58 13.9a2.5 2.5 0 0 0 4.68-0.0957l5.62-15.9 13.9-5.58a2.5 2.5 0 0 0-0.0957-4.68l-15.9-5.62-5.58-13.9a2.5 2.5 0 0 0-2.37-1.57zm0.197 9.59 3.53 8.83a2.5 2.5 0 0 0 1.49 1.43l10.7 3.79-8.83 3.53a2.5 2.5 0 0 0-1.43 1.49l-3.79 10.7-3.53-8.83a2.5 2.5 0 0 0-1.49-1.43l-10.7-3.79 8.83-3.53a2.5 2.5 0 0 0 1.43-1.49z" color="#000000" fill="#fff" stroke-linecap="round" stroke-linejoin="round" style="-inkscape-stroke:none"/>
</svg>
