<svg width="576" height="576" version="1.1" viewBox="0 0 576 576" xmlns="http://www.w3.org/2000/svg">
 <path d="m150 20h248c14.4 0 26 11.6 26 26v340c0 14.4-11.6 26-26 26h-248c-14.4 0-26-11.6-26-26v-340c0-14.4 11.6-26 26-26z" fill="#fff"/>
 <path d="m272 407h5c1.66 0 3 1.34 3 3v149c0 1.66-1.34 3-3 3h-5c-1.66 0-3-1.34-3-3v-149c0-1.66 1.34-3 3-3z" fill="#fffeff"/>
 <path d="m225 555h98c1.66 0 3 1.34 3 3v2c0 1.66-1.34 3-3 3h-98c-1.66 0-3-1.34-3-3v-2c0-1.66 1.34-3 3-3z" fill="#cde3f6"/>
 <path d="m124 292v94c0 14.4 11.6 26 26 26h248c14.4 0 26-11.6 26-26v-94h-300z" fill="#e7f1fb"/>
 <path d="m220 97h108c8.31 0 15 6.69 15 15v105c0 8.31-6.69 15-15 15h-108c-8.31 0-15-6.69-15-15v-105c0-8.31 6.69-15 15-15z" fill="#383536"/>
 <path d="m181 320h185c1.66 0 3 1.34 3 3v16c0 1.66-1.34 3-3 3h-185c-1.66 0-3-1.34-3-3v-16c0-1.66 1.34-3 3-3z" fill="#3f7ccd"/>
 <path d="m215 365h119c1.66 0 3 1.34 3 3v12c0 1.66-1.34 3-3 3h-119c-1.66 0-3-1.34-3-3v-12c0-1.66 1.34-3 3-3z" fill="#3f7ccd"/>
 <path d="m455 194-16-32-32-15 32-16 15-32 16 32 32 15-32 16z" fill="#ffc556"/>
 <path d="m534 85a14 14 0 0 1-14 14 14 14 0 0 1-14-14 14 14 0 0 1 14-14 14 14 0 0 1 14 14z" fill="#fff"/>
 <path d="m70 381a14 14 0 0 1-14 14 14 14 0 0 1-14-14 14 14 0 0 1 14-14 14 14 0 0 1 14 14z" fill="#fff"/>
</svg>
